<svg xmlns="http://www.w3.org/2000/svg" viewBox="0 0 24 24" width="24" height="24" fill="none" stroke="white" stroke-width="2" stroke-linecap="round" stroke-linejoin="round">
    <path d="M12 15.5a3.5 3.5 0 1 1 0-7 3.5 3.5 0 0 1 0 7z"/>
    <path d="M19.4 12.94a7.9 7.9 0 0 0 0-1.88l2.1-1.65a.5.5 0 0 0 .12-.64l-2-3.46a.5.5 0 0 0-.6-.22l-2.49 1a7.91 7.91 0 0 0-1.63-.95l-.38-2.65a.5.5 0 0 0-.5-.42h-4a.5.5 0 0 0-.5.42l-.38 2.65a7.91 7.91 0 0 0-1.63.95l-2.49-1a.5.5 0 0 0-.6.22l-2 3.46a.5.5 0 0 0 .12.64l2.1 1.65a7.9 7.9 0 0 0 0 1.88l-2.1 1.65a.5.5 0 0 0-.12.64l2 3.46a.5.5 0 0 0 .6.22l2.49-1c.5.38 1.05.7 1.63.95l.38 2.65a.5.5 0 0 0 .5.42h4a.5.5 0 0 0 .5-.42l.38-2.65c.58-.25 1.13-.57 1.63-.95l2.49 1a.5.5 0 0 0 .6-.22l2-3.46a.5.5 0 0 0-.12-.64l-2.1-1.65z"/>
</svg>
